<svg xmlns="http://www.w3.org/2000/svg" width="314" height="91"><path fill="#FFF" fill-rule="evenodd" d="M86.59 25.7c18.033 0 32.652 14.56 32.652 32.523S104.623 90.747 86.59 90.747 53.938 76.186 53.938 58.223c0-17.962 14.62-32.524 32.652-32.524zm159.524 24.293c.626 4.142 1.019 8.311.18 12.669h-45.34c.141.765.195 1.348.358 1.908 2.76 9.437 10.313 13.612 19.347 13.127 6.791-.367 12.567-3.222 17.653-7.593.338-.287.677-.543 1.194-.944 1.259 3.138 2.5 6.124 3.61 9.154.143.388-.277 1.132-.639 1.53-5.042 5.548-11.186 9.326-18.678 10.276-10.732 1.369-20.382-1.277-28.199-9.036-5.45-5.41-7.718-12.281-8.195-19.77-.555-8.716 1.015-16.933 6.69-23.886 6.056-7.415 14.025-11.46 23.597-11.655 14.41-.29 26.226 9.963 28.422 24.22zm42.147-24.617c8.083.471 15.013 3.35 19.963 10.04 2.798 3.775 4.399 8.055 5.2 12.652.085.489.248.968.373 1.45l.017 39.433h-13.196c-.037-.799-.095-1.45-.095-2.097 0-10.896 0-21.792-.027-32.692a28.27 28.27 0 00-.514-5.342c-1.164-5.824-4.819-9.393-10.696-10.448-6.09-1.106-11.724-.385-15.994 4.691a10.478 10.478 0 00-2.62 7.078c.095 12.133.041 24.267.041 36.4 0 2.248 0 2.31-2.204 2.312h-11.076V28.197c2.954.438 5.826.859 8.699 1.29.944.142 1.885.361 2.835.435.525.04 1.185 0 1.584-.263 5.35-3.74 11.393-4.65 17.71-4.283zM141.953 0v55.813l.369.216c.426-.448.873-.876 1.279-1.348 7.816-8.927 15.634-17.852 23.455-26.774.366-.422.975-.887 1.472-.893 5.515-.065 11.03-.04 16.942-.04l-26.42 28.984c9.854 10.87 19.676 21.699 29.81 32.871h-7.007c-3.215 0-6.43-.057-9.64.03a3.518 3.518 0 01-3.046-1.347 7258.27 7258.27 0 00-25.749-29.47c-.338-.375-.66-.742-1.353-1.507V88.69h-13.23V1.928L141.953 0zM1.82 1.362l63.196.003c.633 4.867 1.245 9.531 1.882 14.412H40.529V88.84h-10.92c-2.822-.006-2.947-.132-2.953-2.959V15.854H0c.626-4.964 1.215-9.67 1.82-14.492zM86.59 39.18c-10.371 0-18.779 8.374-18.779 18.705 0 10.33 8.408 18.706 18.78 18.706 10.37 0 18.778-8.375 18.778-18.706 0-10.33-8.407-18.705-18.779-18.705zm128.696-.51c-7.894.796-13.365 8.005-13.724 13.206h31.657c-1.64-9.083-8.695-14.136-17.933-13.205z"/></svg>