<svg xmlns="http://www.w3.org/2000/svg" width="24" height="24" viewBox="0 0 24 24">
  <path fill="none" stroke="#333333" stroke-width="2.087" d="M12,1.04347826 C5.94888013,1.04347826 1.04347826,5.94888013 1.04347826,12 C1.04347826,18.0511199 5.94888013,22.9565217 12,22.9565217 C18.0511199,22.9565217 22.9565217,18.0511199 22.9565217,12 C22.9565217,5.94888013 18.0511199,1.04347826 12,1.04347826 Z M12,1.04347826 C18.0511199,1.04347826 22.9565217,5.94888013 22.9565217,12 C22.9565217,18.0511199 18.0511199,22.9565217 12,22.9565217 C5.94888013,22.9565217 1.04347826,18.0511199 1.04347826,12 C1.04347826,5.94888013 5.94888013,1.04347826 12,1.04347826 Z M11.9373913,18.7826087 L11.9373913,19.826087 L12.9808696,18.7826087 L11.9373913,18.7826087 Z M11.8330435,18.7826087 L10.7895652,18.7826087 L11.8330435,19.826087 L11.8330435,18.7826087 Z M11.8330435,18.7408696 L11.8330435,17.6973913 L10.7895652,18.7408696 L11.8330435,18.7408696 Z M11.9373913,18.7408696 L12.9808696,18.7408696 L11.9373913,17.6973913 L11.9373913,18.7408696 Z M10.9773913,15.3808696 L12.8347826,15.3808696 L12.8347826,14.3373913 L12.0601612,14.3373913 C12.1590795,13.6876627 12.4639542,13.2431013 13.1862022,12.5527803 L13.5650277,12.2017885 C14.725619,11.2365204 15.2765217,10.2938645 15.2765217,8.89043478 C15.2765217,7.16106743 14.049673,5.98956522 12.1252174,5.98956522 C11.3062769,5.98956522 10.6113097,6.11386364 9.93391304,6.38341158 L9.93391304,6.24 L8.89043478,6.24 L9.22989897,6.7177644 C8.95710408,6.86782966 8.68117043,7.04258507 8.39516826,7.2433951 L8.91031993,7.97709598 L8.89043478,8.07652174 L8.98012951,8.07652174 L8.99478261,8.0973913 L8.99895652,8.07652174 L9.93391304,8.07652174 L9.93391304,6.82700225 C10.535959,6.52483643 11.2887739,6.36521739 12.2504348,6.36521739 C14.1332634,6.36521739 15.1930435,7.23160695 15.1930435,8.84869565 C15.1930435,10.0308201 14.7375738,10.7998377 13.5172009,11.8894564 C12.5120071,12.6919808 11.9833703,13.3597205 11.8352691,14.3373913 L10.9773913,14.3373913 L10.9773913,15.3808696 Z"/>
</svg>
