<svg xmlns="http://www.w3.org/2000/svg" width="24" height="24" viewBox="0 0 24 24">
  <path fill="#ECB800" d="M12.0102934,14 C10.9238587,14 10.3294032,13.5386819 10.2883874,12.750019 L10.0014031,5.39882667 C9.96042933,4.5803581 10.8213823,4 11.9898065,4 C13.1377018,4 14.0396705,4.59523048 13.9986547,5.41369905 L13.6911835,12.750019 C13.6501678,13.5535848 13.0557122,14 12.0102934,14 Z M12,20 C13.1045695,20 14,19.1045695 14,18 C14,16.8954305 13.1045695,16 12,16 C10.8954305,16 10,16.8954305 10,18 C10,19.1045695 10.8954305,20 12,20 Z M12,24 C18.627417,24 24,18.627417 24,12 C24,5.372583 18.627417,0 12,0 C5.372583,0 4.36983782e-13,5.372583 4.36983782e-13,12 C4.36983782e-13,18.627417 5.372583,24 12,24 Z M12,21.9130435 C6.52517726,21.9130435 2.08695652,17.4748227 2.08695652,12 C2.08695652,6.52517726 6.52517726,2.08695652 12,2.08695652 C17.4748227,2.08695652 21.9130435,6.52517726 21.9130435,12 C21.9130435,17.4748227 17.4748227,21.9130435 12,21.9130435 Z"/>
</svg>
