<svg xmlns="http://www.w3.org/2000/svg" width="20" height="16" viewBox="0 0 20 16">
  <path fill="#FFFFFF" fill-rule="evenodd" d="M12,2 C11.3733369,2 10.9199918,2.44324294 10.9199918,3.07453334 L10.9199918,16.4660928 L11.013326,18.7092107 L7.69332854,15.0020129 L5.78666882,13.1349899 C5.60000055,12.9469425 5.31999813,12.8394946 5.03999571,12.8394946 C4.44001394,12.8394946 4,13.3095858 4,13.9006039 C4,14.1826751 4.10665432,14.4378705 4.33332685,14.693066 L11.1999943,21.6239076 C11.4266668,21.8656809 11.7066692,22 12,22 C12.2933253,22 12.5733277,21.8656809 12.8000003,21.6239076 L19.6666677,14.693066 C19.8933402,14.4378705 20,14.1826751 20,13.9006039 C20,13.3095858 19.5599806,12.8394946 18.9599988,12.8394946 C18.6799964,12.8394946 18.399994,12.9469425 18.2133257,13.1349899 L16.306666,15.0020129 L12.9866686,18.7092107 L13.0800027,16.4660928 L13.0800027,3.07453334 C13.0800027,2.44324294 12.6266576,2 12,2 Z" transform="rotate(90 13 9)"/>
</svg>
