<svg xmlns="http://www.w3.org/2000/svg" width="9" height="16" viewBox="0 0 9 16">
  <path fill="#A8A6A6" fill-rule="evenodd" d="M8.9528161,20 C9.21683549,20 9.44643596,19.8968488 9.61862456,19.7249294 L16.7130112,12.6762254 C16.8966727,12.4928324 17,12.2521424 17,12 C17,11.7478529 16.8966727,11.4957081 16.7130112,11.3237699 L9.61862456,4.2865324 C9.44643596,4.10313946 9.21683549,4 8.9528161,4 C8.41325734,4 8,4.41260477 8,4.95128192 C8,5.20342668 8.11479553,5.44411671 8.27551116,5.62750965 L14.6925928,12 L8.27551116,18.3724927 C8.11479553,18.5558739 8,18.7850998 8,19.048711 C8,19.5873929 8.41325734,20 8.9528161,20 Z" transform="translate(-8 -4)"/>
</svg>
