<svg xmlns="http://www.w3.org/2000/svg" width="314" height="91" viewBox="0 0 314 91">
  <path fill="#FFFFFF" fill-rule="evenodd" d="M86.5902371,25.6990741 C104.623405,25.6990741 119.242177,40.260598 119.242177,58.2231481 C119.242177,76.1856983 104.623405,90.7472222 86.5902371,90.7472222 C68.5570687,90.7472222 53.9382974,76.1856983 53.9382974,58.2231481 C53.9382974,40.260598 68.5570687,25.6990741 86.5902371,25.6990741 Z M246.114418,49.9927037 C246.740388,54.1348889 247.132888,58.304037 246.29375,62.6619259 L200.953233,62.6619259 C201.095345,63.427 201.149483,64.0100741 201.311897,64.5695556 C204.072931,74.0065926 211.625172,78.1824815 220.65944,77.6971481 C227.450366,77.3297778 233.226207,74.4750741 238.311789,70.1037037 C238.650151,69.8172222 238.988513,69.5610741 239.506207,69.16 C240.764914,72.2978148 242.006703,75.283963 243.11653,78.3139259 C243.258642,78.7015185 242.839073,79.4463704 242.477026,79.8440741 C237.435431,85.3917037 231.290776,89.1698889 223.79944,90.1203333 C213.066595,91.4887037 203.416509,88.842963 195.600345,81.0843704 C190.149332,75.6749259 187.882306,68.8027407 187.405216,61.3137778 C186.850302,52.598 188.420302,44.381037 194.094634,37.427963 C200.151315,30.0131481 208.119741,25.9687037 217.692004,25.7732222 C232.102845,25.4833704 243.918448,35.736037 246.114418,49.9927037 Z M288.260797,25.3755185 C296.344267,25.8473704 303.273922,28.7256667 308.224159,35.4158519 C311.022414,39.1906667 312.622866,43.471037 313.424784,48.0682222 C313.509375,48.5569259 313.671789,49.0355185 313.796983,49.5174815 L313.813901,88.9508148 L300.61778,88.9508148 C300.58056,88.152037 300.523039,87.5015556 300.523039,86.8544444 C300.523039,75.958037 300.523039,65.0616296 300.49597,54.1618519 C300.494328,52.368988 300.322121,50.5803134 299.981659,48.8198148 C298.817694,42.9958148 295.163384,39.4265926 289.286034,38.3716667 C283.195517,37.2661852 277.561789,37.9874444 273.291659,43.0632222 C271.568846,45.0180108 270.635624,47.5400929 270.672737,50.141 C270.767478,62.2743333 270.713341,74.4076667 270.713341,86.541 C270.713341,88.7888498 270.713341,88.8512901 268.508767,88.8530245 L257.432629,88.8530741 L257.432629,28.1965185 C260.38653,28.6346667 263.259224,29.055963 266.131918,29.4873704 C267.075948,29.6289259 268.016595,29.848 268.967392,29.9221481 C269.491853,29.9625926 270.151659,29.9221481 270.550927,29.6592593 C275.900431,25.9181481 281.943578,25.0081481 288.260797,25.3755185 Z M141.953039,0 L141.953039,55.8133333 L142.321853,56.029037 C142.74819,55.5807778 143.194828,55.1527407 143.600862,54.6808889 C151.417026,45.7539012 159.235445,36.8291605 167.056121,27.9066667 C167.421552,27.4853704 168.030603,27.0202593 168.527996,27.0135185 C174.043297,26.9494815 179.558599,26.9730741 185.469784,26.9730741 L159.050474,55.9582593 C168.903578,66.8277037 178.726228,77.6567037 188.860172,88.8294815 L181.852694,88.8294815 C178.638254,88.8294815 175.423815,88.7721852 172.212759,88.8598148 C171.034635,88.9492624 169.890309,88.4426649 169.1675,87.5116667 C160.611451,77.6656914 152.028333,67.8421852 143.418147,58.0411481 C143.079784,57.667037 142.758341,57.2996667 142.064698,56.5345926 L142.064698,88.6912963 L128.834741,88.6912963 L128.834741,1.92785185 L141.953039,0 Z M1.82038793,1.36162963 L65.0162716,1.365 C65.6490086,6.23181481 66.261444,10.8964074 66.8975647,15.7767037 L40.5290086,15.7767037 L40.5290086,88.8395926 L29.6081344,88.8393329 C26.7873625,88.8337493 26.6619948,88.7081188 26.656423,85.881433 L26.6561638,15.8542222 L1.42108547e-14,15.8542222 C0.625969828,10.8896667 1.21471983,6.18462963 1.82038793,1.36162963 Z M86.5902371,39.1805556 C76.2188294,39.1805556 67.8111422,47.555318 67.8111422,57.8861111 C67.8111422,68.2169042 76.2188294,76.5916667 86.5902371,76.5916667 C96.9616448,76.5916667 105.369332,68.2169042 105.369332,57.8861111 C105.369332,47.555318 96.9616448,39.1805556 86.5902371,39.1805556 Z M215.28625,38.6716296 C207.392263,39.467037 201.920948,46.6762593 201.562284,51.8767407 L233.21944,51.8767407 C231.578384,42.7935926 224.523534,37.7414074 215.28625,38.6716296 Z"/>
</svg>
